<svg id="visual" viewBox="0 0 900 600" width="900" height="600" xmlns="http://www.w3.org/2000/svg" xmlns:xlink="http://www.w3.org/1999/xlink" version="1.1"><rect x="0" y="0" width="900" height="600" fill="#FDFCFA"></rect><defs><linearGradient id="grad1_0" x1="33.3%" y1="0%" x2="100%" y2="100%"><stop offset="20%" stop-color="#fdfcfa" stop-opacity="1"></stop><stop offset="80%" stop-color="#fdfcfa" stop-opacity="1"></stop></linearGradient></defs><defs><linearGradient id="grad2_0" x1="0%" y1="0%" x2="66.7%" y2="100%"><stop offset="20%" stop-color="#fdfcfa" stop-opacity="1"></stop><stop offset="80%" stop-color="#fdfcfa" stop-opacity="1"></stop></linearGradient></defs><g transform="translate(900, 0)"><path d="M0 270.4C-33.2 239.4 -66.4 208.3 -109.5 189.7C-152.6 171 -205.7 164.8 -234.2 135.2C-262.7 105.7 -266.5 52.8 -270.4 0L0 0Z" fill="#f2edd9"></path></g><g transform="translate(0, 600)"><path d="M0 -270.4C38.8 -249.1 77.6 -227.7 120 -207.8C162.4 -188 208.5 -169.6 234.2 -135.2C259.9 -100.8 265.1 -50.4 270.4 0L0 0Z" fill="#f2edd9"></path></g></svg>